<svg xmlns="http://www.w3.org/2000/svg" width="1515" height="140" viewBox="0 0 1515 140" version="1.1"><path d="M 1422.500 10.765 C 1421.950 11.169, 1420.943 13.052, 1420.262 14.948 C 1418.973 18.538, 1419.690 19.948, 1422.821 19.985 C 1423.548 19.993, 1424.898 20.759, 1425.821 21.687 C 1427.396 23.269, 1427.520 23.238, 1427.820 21.187 C 1427.995 19.984, 1428.613 19, 1429.192 19 C 1431.110 19, 1427.953 16.134, 1425.677 15.810 C 1423.956 15.565, 1423.560 14.923, 1423.788 12.750 C 1424.098 9.782, 1424.014 9.653, 1422.500 10.765 M 1434.500 16.348 C 1433.225 17.082, 1432.616 18.316, 1432.820 19.750 C 1433.034 21.263, 1432.625 22, 1431.570 22 C 1430.505 22, 1430.025 22.885, 1430.079 24.750 C 1430.122 26.262, 1430.385 26.938, 1430.662 26.250 C 1431.359 24.523, 1437.486 24.676, 1438.964 26.456 C 1439.628 27.257, 1439.839 28.452, 1439.432 29.111 C 1438.963 29.869, 1439.115 30.047, 1439.845 29.595 C 1440.480 29.203, 1441 27.784, 1441 26.441 C 1441 25.098, 1441.505 24, 1442.122 24 C 1442.898 24, 1442.860 23.536, 1442 22.500 C 1441.315 21.675, 1439.460 21, 1437.878 21 C 1434.624 21, 1434.651 21.048, 1435.975 17.565 C 1436.512 16.154, 1436.849 15.044, 1436.725 15.098 C 1436.601 15.152, 1435.600 15.714, 1434.500 16.348 M 1447.018 19.745 C 1446.202 20.662, 1445.483 21.883, 1445.420 22.457 C 1445.357 23.030, 1445.236 24.063, 1445.152 24.750 C 1445.069 25.438, 1444.387 26, 1443.639 26 C 1442.713 26, 1442.436 26.829, 1442.773 28.592 C 1443.045 30.018, 1443.545 30.755, 1443.884 30.230 C 1444.917 28.631, 1450.862 28.197, 1451.430 29.679 C 1452.196 31.674, 1453.372 31.260, 1454.628 28.552 C 1455.855 25.904, 1454.597 24.688, 1450.500 24.562 C 1448.868 24.511, 1448.547 23.901, 1448.754 21.250 C 1449.045 17.527, 1449.013 17.499, 1447.018 19.745 M 1459 21.833 C 1458.175 22.750, 1457.652 24.574, 1457.837 25.887 C 1458.023 27.200, 1457.573 28.705, 1456.837 29.231 C 1455.834 29.949, 1455.937 30.048, 1457.250 29.626 C 1458.213 29.316, 1459 29.499, 1459 30.031 C 1459 30.564, 1458.523 31, 1457.941 31 C 1457.359 31, 1457.177 31.477, 1457.537 32.060 C 1457.966 32.754, 1458.590 32.606, 1459.346 31.632 C 1460.895 29.636, 1463.996 29.313, 1466.797 30.856 C 1468.968 32.051, 1469.078 31.965, 1468.797 29.311 C 1468.419 25.730, 1467.430 25.056, 1463.494 25.695 C 1460.424 26.193, 1460.331 26.104, 1460.771 23.105 C 1461.285 19.605, 1461.115 19.483, 1459 21.833 M 1474 21.849 C 1473.175 22.774, 1472.500 25.374, 1472.500 27.626 C 1472.500 31.676, 1472.532 31.711, 1475.422 30.881 C 1478.646 29.954, 1480.954 31.176, 1481.070 33.872 C 1481.124 35.105, 1481.333 35.015, 1481.932 33.500 C 1482.367 32.400, 1482.512 30.938, 1482.255 30.250 C 1481.997 29.563, 1482.359 29, 1483.060 29 C 1485.564 29, 1482.953 27.677, 1479.261 27.076 C 1475.724 26.500, 1475.519 26.271, 1475.825 23.232 C 1476.193 19.585, 1476.089 19.506, 1474 21.849 M 1494.490 25.016 C 1494.144 25.575, 1493.439 25.771, 1492.922 25.452 C 1491.815 24.767, 1490.057 28.959, 1490.721 30.704 C 1491.382 32.443, 1488.394 36.447, 1487.506 35.010 C 1487.120 34.385, 1487.593 33.002, 1488.557 31.937 C 1490.812 29.445, 1488.935 29.422, 1485.869 31.905 L 1483.517 33.809 1485.509 36.043 C 1489.360 40.362, 1497.651 42.327, 1502.062 39.967 C 1503.125 39.398, 1504.894 37.168, 1505.994 35.011 L 1507.995 31.090 1504.293 30.395 C 1501.333 29.840, 1500.382 30.055, 1499.546 31.469 C 1498.971 32.441, 1497.712 34.196, 1496.748 35.369 C 1495.048 37.437, 1495.041 37.412, 1496.492 34.500 C 1497.315 32.850, 1497.990 30.472, 1497.994 29.215 C 1497.999 27.214, 1498.258 27.067, 1500.071 28.038 C 1502.094 29.121, 1502.103 29.087, 1500.456 26.573 C 1498.748 23.967, 1495.640 23.156, 1494.490 25.016 M 1473.434 60.156 C 1471.820 63.541, 1470.614 66.837, 1470.753 67.479 C 1470.892 68.120, 1469.880 69.704, 1468.503 70.997 C 1465.305 74.001, 1465.352 74.793, 1468.750 75.184 L 1471.500 75.500 1467.250 80.112 C 1464.912 82.648, 1463 85.011, 1463 85.362 C 1463 85.713, 1465.475 86, 1468.500 86 C 1473.175 86, 1474 86.276, 1474 87.841 C 1474 89.552, 1472.478 89.730, 1452.591 90.348 C 1440.816 90.714, 1429.721 91.306, 1427.935 91.663 C 1425.606 92.129, 1424.891 91.986, 1425.404 91.156 C 1425.797 90.520, 1426.991 90, 1428.059 90 C 1430.434 90, 1430.505 89.215, 1428.345 86.829 C 1427.342 85.720, 1427.148 85, 1427.853 85 C 1428.633 85, 1428.724 84.423, 1428.128 83.250 C 1427.640 82.287, 1426.598 79.973, 1425.813 78.107 L 1424.386 74.714 1422.248 79.857 C 1420.956 82.967, 1420.546 85, 1421.210 85 C 1421.815 85, 1421.565 85.823, 1420.655 86.829 C 1418.483 89.229, 1418.567 90, 1421 90 C 1422.100 90, 1423 90.414, 1423 90.920 C 1423 91.427, 1419.963 92.120, 1416.250 92.461 C 1412.537 92.802, 1408.037 93.308, 1406.250 93.586 C 1404.334 93.883, 1403 93.661, 1403 93.045 C 1403 92.470, 1404.125 92, 1405.500 92 C 1408.429 92, 1408.608 91.329, 1406.345 88.829 C 1405.180 87.542, 1405.069 87, 1405.967 87 C 1406.971 87, 1406.954 86.650, 1405.888 85.364 C 1405.141 84.465, 1404.499 83.227, 1404.462 82.614 C 1404.306 80.079, 1402.721 76, 1401.892 76 C 1401.401 76, 1401 76.472, 1401 77.048 C 1401 77.625, 1400.099 79.960, 1398.999 82.239 C 1397.689 84.949, 1397.360 86.604, 1398.046 87.029 C 1398.721 87.445, 1398.543 88.134, 1397.547 88.961 C 1395.437 90.712, 1395.604 92, 1397.941 92 C 1399.752 92, 1402.079 93.981, 1400.309 94.016 C 1398.183 94.057, 1370.204 98.227, 1360 100.023 C 1353.675 101.136, 1340.983 103.875, 1331.795 106.109 L 1315.089 110.171 1311.795 106.433 C 1305.740 99.563, 1305.501 99, 1308.639 99 L 1311.392 99 1307.946 95.372 C 1305.809 93.122, 1304.958 91.577, 1305.707 91.303 C 1306.539 90.999, 1305.931 88.869, 1303.742 84.431 C 1301.998 80.894, 1300.300 78, 1299.969 78 C 1299.061 78, 1293.462 90.139, 1293.753 91.479 C 1293.892 92.120, 1292.880 93.704, 1291.503 94.997 C 1288.305 98.001, 1288.352 98.793, 1291.750 99.184 L 1294.500 99.500 1290.250 104.112 C 1287.912 106.648, 1286 109.011, 1286 109.362 C 1286 109.713, 1288.475 110, 1291.500 110 L 1297 110 1296.983 113.250 C 1296.967 116.275, 1296.570 116.653, 1291.249 118.713 L 1285.532 120.926 1282.764 118.274 C 1281.005 116.589, 1280.395 115.374, 1281.090 114.945 C 1281.828 114.488, 1281.869 113.656, 1281.214 112.384 C 1280.681 111.348, 1279.472 108.708, 1278.528 106.519 C 1276.884 102.705, 1276.751 102.621, 1275.362 104.519 C 1274.565 105.608, 1273.647 107.625, 1273.322 109 C 1272.997 110.375, 1272.047 112.287, 1271.211 113.250 C 1269.833 114.835, 1269.867 115, 1271.572 115 C 1273.223 115, 1273.128 115.326, 1270.807 117.647 L 1268.160 120.294 1251.830 115.667 C 1226.900 108.603, 1193.329 101.670, 1173.228 99.434 C 1166.664 98.704, 1163.663 97, 1168.941 97 C 1172.529 97, 1172.949 95.169, 1169.976 92.479 C 1168.479 91.123, 1168.273 90.449, 1169.187 89.885 C 1170.124 89.305, 1170.009 88.667, 1168.708 87.230 C 1167.766 86.189, 1167.292 85.041, 1167.654 84.679 C 1168.017 84.317, 1167.484 82.182, 1166.471 79.935 L 1164.629 75.850 1162.856 79.175 C 1161.881 81.004, 1161.065 83.232, 1161.042 84.128 C 1161.019 85.023, 1160.325 86.315, 1159.500 87 C 1157.567 88.604, 1157.581 90, 1159.530 90 C 1160.750 90, 1160.599 90.658, 1158.783 93.250 C 1157.531 95.038, 1156.445 96.635, 1156.369 96.801 C 1156.293 96.966, 1148.642 96.385, 1139.366 95.509 C 1130.090 94.633, 1112.021 93.641, 1099.214 93.305 C 1086.407 92.968, 1075.693 92.312, 1075.405 91.847 C 1075.117 91.381, 1076.289 91, 1078.009 91 L 1081.136 91 1079.050 88.070 C 1077.669 86.131, 1077.330 84.914, 1078.047 84.471 C 1078.779 84.019, 1078.622 83.240, 1077.563 82.070 C 1076.701 81.117, 1076.224 80.110, 1076.502 79.831 C 1077.242 79.092, 1074.959 73, 1073.942 73 C 1073.468 73, 1072.536 74.912, 1071.872 77.250 C 1071.207 79.588, 1070.289 81.927, 1069.831 82.450 C 1068.670 83.777, 1068.791 85.247, 1070 84.500 C 1071.595 83.514, 1071.166 84.958, 1068.932 88.096 L 1066.864 91 1070.132 91 C 1072.060 91, 1073.010 91.360, 1072.450 91.876 C 1071.928 92.359, 1059.350 92.950, 1044.500 93.190 C 1029.650 93.431, 1018.737 93.457, 1020.250 93.248 C 1023.445 92.806, 1023.600 92.321, 1021.345 89.829 C 1020.180 88.542, 1020.069 88, 1020.967 88 C 1021.971 88, 1021.954 87.650, 1020.888 86.364 C 1020.141 85.465, 1019.499 84.227, 1019.462 83.614 C 1019.306 81.079, 1017.721 77, 1016.892 77 C 1016.401 77, 1016 77.472, 1016 78.048 C 1016 78.625, 1015.099 80.960, 1013.999 83.239 C 1012.689 85.949, 1012.360 87.604, 1013.046 88.029 C 1013.721 88.445, 1013.543 89.134, 1012.547 89.961 C 1010.419 91.727, 1010.609 93, 1013 93 C 1014.100 93, 1015 93.450, 1015 94 C 1015 94.550, 1012.603 95, 1009.674 95 C 1005.330 95, 1003.929 94.553, 1002.070 92.574 C 1000.816 91.240, 1000.101 89.645, 1000.481 89.030 C 1000.861 88.415, 1000.722 87.370, 1000.171 86.706 C 999.621 86.043, 999.178 85.143, 999.189 84.707 C 999.199 84.271, 998.635 82.534, 997.936 80.847 L 996.666 77.779 994.928 81.139 C 993.972 82.987, 993.368 84.786, 993.584 85.136 C 993.801 85.487, 993.287 86.347, 992.442 87.048 C 991.236 88.049, 991.179 88.492, 992.176 89.109 C 993.134 89.701, 992.855 90.525, 991.049 92.447 L 988.651 95 992.076 95.068 C 998.686 95.198, 991.961 96.755, 977.124 98.529 C 969.217 99.474, 956.953 101.238, 949.871 102.449 C 937.767 104.518, 936.901 104.548, 935.455 102.950 C 934.609 102.015, 934.007 100.856, 934.117 100.375 C 934.314 99.515, 933.830 97.956, 931.831 93.010 C 930.855 90.595, 930.781 90.578, 929.412 92.451 C 928.635 93.513, 928 95.170, 928 96.132 C 928 97.095, 927.570 98.148, 927.044 98.473 C 926.518 98.798, 926.323 99.679, 926.612 100.431 C 926.900 101.183, 926.656 102.095, 926.068 102.458 C 924.265 103.573, 924.881 105, 927.167 105 C 930.951 105, 928.124 106.389, 920.693 108.181 C 912.460 110.167, 908.605 110.449, 909.500 109 C 909.840 108.450, 911.666 108, 913.559 108 C 917.704 108, 917.803 107.448, 914.313 103.805 C 911.996 101.386, 911.879 101, 913.468 101 C 915.240 101, 915.242 100.925, 913.519 99.022 C 912.535 97.933, 911.664 96.246, 911.586 95.272 C 911.396 92.934, 908.750 85.999, 908.049 86.004 C 907.432 86.008, 904 94.011, 904 95.446 C 904 95.955, 903.022 97.413, 901.826 98.686 L 899.651 101 902.013 101 L 904.374 101 901.687 103.805 C 898.189 107.456, 898.294 108, 902.500 108 C 905.212 108, 906 108.408, 906 109.811 C 906 111.162, 904.666 111.957, 900.750 112.939 C 897.862 113.664, 889.837 115.983, 882.916 118.092 L 870.331 121.927 859.416 119.644 C 849.814 117.635, 848.462 117.098, 848.180 115.180 C 847.882 113.144, 848.263 113, 853.930 113 C 857.269 113, 860 112.732, 860 112.403 C 860 112.075, 858.152 109.713, 855.893 107.153 L 851.786 102.500 854.513 102.172 L 857.241 101.844 853.871 98.294 C 851.773 96.085, 850.956 94.578, 851.707 94.303 C 852.539 93.999, 851.931 91.869, 849.742 87.431 C 847.998 83.894, 846.300 81, 845.969 81 C 845.061 81, 839.462 93.139, 839.753 94.479 C 839.892 95.120, 838.880 96.704, 837.503 97.997 C 834.305 101.001, 834.352 101.793, 837.750 102.184 L 840.500 102.500 836.250 107.112 C 833.912 109.648, 832 112.011, 832 112.362 C 832 112.713, 834.475 113, 837.500 113 C 841.722 113, 843 113.348, 843 114.500 C 843 116.382, 843.446 116.398, 828.233 113.956 C 810.149 111.052, 778.230 107.346, 759.500 105.975 C 743.456 104.800, 734.916 103.205, 743.937 103.068 L 748.374 103 745.437 99.868 C 743.385 97.681, 742.895 96.594, 743.811 96.265 C 744.823 95.900, 744.730 95.359, 743.401 93.890 C 742.454 92.844, 741.957 91.710, 742.297 91.370 C 742.907 90.759, 739.388 83, 738.500 83 C 738.247 83, 737.122 84.800, 736 87 C 734.878 89.200, 734.272 91, 734.654 91 C 735.036 91, 734.292 92.125, 733 93.500 C 731.056 95.569, 730.940 96, 732.326 96 C 734.560 96, 734.439 97.293, 732 99.500 C 729.148 102.081, 729.494 102.826, 733.750 103.272 C 736.784 103.589, 736.545 103.674, 732.500 103.715 C 725.961 103.782, 713.034 102.365, 718.250 102.152 C 722.533 101.978, 722.803 101.291, 719.994 97.720 C 718.550 95.883, 718.340 95.052, 719.244 94.748 C 720.208 94.424, 720.154 93.907, 719.015 92.527 C 718.198 91.538, 717.516 90.227, 717.500 89.614 C 717.398 85.900, 713 78.471, 713 82.014 C 713 82.571, 711.717 85.721, 710.149 89.014 C 708.001 93.524, 707.649 95, 708.721 95 C 709.789 95, 709.627 95.659, 708.073 97.635 C 705.354 101.091, 705.455 101.786, 708.750 102.311 C 710.263 102.552, 709.250 102.585, 706.500 102.383 C 703.750 102.182, 680.436 102.013, 654.691 102.009 C 623.742 102.003, 608.091 101.661, 608.500 101 C 608.840 100.450, 611.205 100, 613.755 100 L 618.392 100 615.196 96.702 C 611.578 92.970, 611.267 92, 613.687 92 C 615.020 92, 614.794 91.394, 612.606 89.110 C 610.880 87.309, 610.288 86.071, 611.034 85.822 C 611.869 85.544, 611.515 84.004, 609.866 80.739 C 608.565 78.163, 607.275 76.054, 607 76.053 C 606.329 76.051, 602.504 84.194, 602.487 85.660 C 602.479 86.298, 601.692 87.683, 600.737 88.739 C 598.605 91.094, 598.540 92, 600.500 92 C 602.727 92, 602.351 93.042, 598.804 96.702 L 595.608 100 600.304 100 C 605.132 100, 606.758 101.606, 602.750 102.417 C 601.512 102.668, 594.538 103.112, 587.250 103.404 C 574.560 103.912, 574 103.852, 574 101.967 C 574 100.229, 574.700 100, 580 100 C 583.300 100, 586 99.732, 586 99.403 C 586 99.075, 584.152 96.713, 581.893 94.153 L 577.786 89.500 580.513 89.172 L 583.241 88.844 579.871 85.294 C 577.773 83.085, 576.956 81.578, 577.707 81.303 C 578.539 80.999, 577.931 78.869, 575.742 74.431 C 573.998 70.894, 572.300 68, 571.969 68 C 571.061 68, 565.462 80.139, 565.753 81.479 C 565.892 82.120, 564.880 83.704, 563.503 84.997 C 560.305 88.001, 560.352 88.793, 563.750 89.184 L 566.500 89.500 562.250 94.112 C 559.912 96.648, 558 99.011, 558 99.362 C 558 99.713, 560.475 100, 563.500 100 C 568.291 100, 569 100.252, 569 101.955 C 569 104.295, 568.216 104.443, 547.500 106.026 C 519.658 108.153, 457.174 116.574, 453.750 118.661 C 453.337 118.912, 453 118.191, 453 117.059 C 453 115.209, 453.609 115, 459 115 C 462.300 115, 465 114.732, 465 114.403 C 465 114.075, 463.152 111.713, 460.893 109.153 L 456.786 104.500 459.513 104.172 L 462.241 103.844 458.871 100.294 C 456.773 98.085, 455.956 96.578, 456.707 96.303 C 457.539 95.999, 456.931 93.869, 454.742 89.431 C 452.998 85.894, 451.300 83, 450.969 83 C 450.061 83, 444.462 95.139, 444.753 96.479 C 444.892 97.120, 443.880 98.704, 442.503 99.997 C 439.305 103.001, 439.352 103.793, 442.750 104.184 L 445.500 104.500 441.250 109.112 C 438.912 111.648, 437 114.011, 437 114.362 C 437 114.713, 439.475 115, 442.500 115 C 447.582 115, 448 115.176, 448 117.314 C 448 119.452, 447.083 119.838, 435.916 122.396 C 429.269 123.919, 423.599 124.933, 423.316 124.649 C 422.095 123.429, 424.384 122, 427.559 122 C 431.704 122, 431.803 121.448, 428.313 117.805 C 425.996 115.386, 425.879 115, 427.468 115 C 429.240 115, 429.242 114.925, 427.519 113.022 C 426.535 111.933, 425.664 110.246, 425.586 109.272 C 425.396 106.934, 422.750 99.999, 422.049 100.004 C 421.432 100.008, 418 108.011, 418 109.446 C 418 109.955, 417.022 111.413, 415.826 112.686 L 413.651 115 416.013 115 L 418.374 115 415.687 117.805 C 412.189 121.456, 412.294 122, 416.500 122 C 419.333 122, 420 122.381, 420 124 C 420 126.522, 419.131 126.511, 406.348 123.829 C 399.499 122.391, 396 121.208, 396 120.329 C 396 119.417, 397.440 119, 400.589 119 L 405.178 119 402.589 115.923 C 399.784 112.590, 399.327 111, 401.174 111 C 401.820 111, 401.292 109.875, 400 108.500 C 398.708 107.125, 398.174 106, 398.813 106 C 399.543 106, 399.162 104.328, 397.788 101.500 C 396.585 99.025, 395.324 97, 394.986 97 C 394.227 97, 391 103.642, 391 105.205 C 391 105.831, 390.212 107.231, 389.250 108.317 C 387.967 109.765, 387.834 110.409, 388.750 110.729 C 390.588 111.372, 390.300 112.490, 387.411 115.923 L 384.822 119 388.911 119 C 391.160 119, 393 119.450, 393 120 C 393 121.269, 394.617 121.398, 374.671 118.536 C 353.085 115.438, 333.303 113.397, 306.500 111.502 C 294.950 110.685, 285.163 110.013, 284.750 110.008 C 284.337 110.004, 284 108.875, 284 107.500 C 284 105.111, 284.267 105, 290 105 C 293.300 105, 296 104.732, 296 104.403 C 296 104.075, 294.152 101.713, 291.893 99.153 L 287.786 94.500 290.513 94.172 L 293.241 93.844 289.871 90.294 C 287.773 88.085, 286.956 86.578, 287.707 86.303 C 288.539 85.999, 287.931 83.869, 285.742 79.431 C 283.998 75.894, 282.300 73, 281.969 73 C 281.061 73, 275.462 85.139, 275.753 86.479 C 275.892 87.120, 274.880 88.704, 273.503 89.997 C 270.305 93.001, 270.352 93.793, 273.750 94.184 L 276.500 94.500 272.250 99.112 C 269.912 101.648, 268 104.011, 268 104.362 C 268 104.713, 270.475 105, 273.500 105 C 278.780 105, 279 105.106, 279 107.645 L 279 110.289 272.250 109.652 C 268.538 109.301, 256.837 109.011, 246.250 109.007 C 229.809 109.001, 227 108.781, 227 107.500 C 227 106.414, 228.117 106, 231.051 106 L 235.102 106 232.371 102.420 C 230.376 99.804, 229.971 98.636, 230.868 98.082 C 231.799 97.506, 231.716 97.009, 230.525 96.021 C 229.661 95.304, 229.166 93.994, 229.423 93.109 C 229.681 92.224, 228.888 89.574, 227.660 87.219 L 225.428 82.939 223.168 87.590 C 221.925 90.149, 221.158 92.492, 221.463 92.797 C 221.769 93.102, 221.036 94.398, 219.835 95.676 C 217.983 97.647, 217.906 98, 219.326 98 C 221.582 98, 221.445 98.728, 218.449 102.656 L 215.898 106 219.390 106 C 222.908 106, 225.253 107.661, 222.813 108.426 C 222.091 108.652, 204.175 109.018, 183 109.239 C 161.825 109.460, 145.738 109.467, 147.250 109.254 C 150.053 108.860, 150.821 107.625, 148.973 106.484 C 148.409 106.135, 148.030 105.321, 148.131 104.675 C 148.311 103.526, 147.869 102.052, 145.831 97.010 C 144.855 94.595, 144.781 94.578, 143.412 96.451 C 142.635 97.513, 142 99.170, 142 100.132 C 142 101.095, 141.570 102.148, 141.044 102.473 C 140.518 102.798, 140.323 103.679, 140.612 104.431 C 140.900 105.183, 140.656 106.095, 140.068 106.458 C 138.318 107.539, 138.854 109, 141 109 C 142.100 109, 143 109.450, 143 110 C 143 110.553, 140.375 111, 137.125 111 C 133.894 111, 129.844 111.281, 128.125 111.625 C 126.106 112.029, 125 111.852, 125 111.125 C 125 110.506, 126.350 110, 128 110 C 131.530 110, 131.929 108.151, 128.976 105.479 C 127.479 104.123, 127.273 103.449, 128.187 102.885 C 129.124 102.305, 129.009 101.667, 127.708 100.230 C 126.766 99.189, 126.292 98.041, 126.654 97.679 C 127.017 97.317, 126.484 95.182, 125.471 92.935 L 123.629 88.850 121.856 92.175 C 120.881 94.004, 120.065 96.232, 120.042 97.128 C 120.019 98.023, 119.325 99.315, 118.500 100 C 116.552 101.616, 116.586 103, 118.573 103 C 119.876 103, 119.791 103.451, 118.073 105.635 C 115.283 109.182, 115.456 110, 119 110 C 120.650 110, 122 110.450, 122 111 C 122 111.550, 121.385 112, 120.632 112 C 113.451 112, 53.927 119.029, 47.250 120.665 C 45.938 120.987, 45 120.755, 45 120.108 C 45 119.498, 46.652 119, 48.674 119 L 52.349 119 50.004 116.504 C 48.714 115.131, 47.957 113.710, 48.321 113.346 C 48.685 112.982, 48.521 112.127, 47.956 111.447 C 47.392 110.767, 47.053 109.826, 47.203 109.355 C 47.589 108.145, 44.913 102, 44 102 C 43.239 102, 40.765 107.226, 40.825 108.707 C 40.843 109.143, 40.187 110.241, 39.368 111.146 C 38.179 112.460, 38.143 112.887, 39.189 113.259 C 40.134 113.595, 39.823 114.462, 38.076 116.363 L 35.651 119 38.826 119 C 40.981 119, 42 119.482, 42 120.500 C 42 121.384, 41.076 122.007, 39.750 122.016 C 37.115 122.036, 12.873 127.316, 5.250 129.530 L 0 131.056 0 135.528 L 0 140 757.441 140 C 1174.034 140, 1515.064 139.662, 1515.287 139.250 C 1515.509 138.838, 1515.480 127.588, 1515.221 114.250 L 1514.751 90 1496.876 90 C 1479.667 90, 1479 89.925, 1479 88 C 1479 86.222, 1479.667 86, 1485 86 C 1488.300 86, 1491 85.732, 1491 85.403 C 1491 85.075, 1489.152 82.713, 1486.893 80.153 L 1482.786 75.500 1485.513 75.172 L 1488.241 74.844 1484.871 71.294 C 1482.773 69.085, 1481.956 67.578, 1482.707 67.303 C 1483.539 66.999, 1482.931 64.869, 1480.742 60.431 C 1478.998 56.894, 1477.300 54, 1476.969 54 C 1476.638 54, 1475.047 56.770, 1473.434 60.156 M 1302 112 C 1302 114.344, 1302.036 114.350, 1307.384 112.831 C 1313.805 111.008, 1313.918 110, 1307.700 110 C 1302.667 110, 1302 110.234, 1302 112" stroke="none" fill="#8c0c1c" fill-rule="evenodd"/><path d="M 0 65.607 C 0 127.688, 0.094 131.177, 1.750 130.520 C 4.668 129.362, 32.171 123.053, 37.250 122.376 C 42.788 121.637, 44.019 119, 38.826 119 L 35.651 119 38.076 116.363 C 39.823 114.462, 40.134 113.595, 39.189 113.259 C 38.143 112.887, 38.179 112.460, 39.368 111.146 C 40.187 110.241, 40.843 109.143, 40.825 108.707 C 40.765 107.226, 43.239 102, 44 102 C 44.913 102, 47.589 108.145, 47.203 109.355 C 47.053 109.826, 47.392 110.767, 47.956 111.447 C 48.521 112.127, 48.685 112.982, 48.321 113.346 C 47.957 113.710, 48.714 115.131, 50.004 116.504 L 52.349 119 48.674 119 C 46.652 119, 45 119.498, 45 120.108 C 45 120.755, 45.938 120.987, 47.250 120.665 C 53.927 119.029, 113.451 112, 120.632 112 C 121.385 112, 122 111.550, 122 111 C 122 110.450, 120.650 110, 119 110 C 115.456 110, 115.283 109.182, 118.073 105.635 C 119.791 103.451, 119.876 103, 118.573 103 C 116.586 103, 116.552 101.616, 118.500 100 C 119.325 99.315, 120.019 98.023, 120.042 97.128 C 120.065 96.232, 120.881 94.004, 121.856 92.175 L 123.629 88.850 125.471 92.935 C 126.484 95.182, 127.017 97.317, 126.654 97.679 C 126.292 98.041, 126.766 99.189, 127.708 100.230 C 129.009 101.667, 129.124 102.305, 128.187 102.885 C 127.273 103.449, 127.479 104.123, 128.976 105.479 C 131.929 108.151, 131.530 110, 128 110 C 126.350 110, 125 110.506, 125 111.125 C 125 111.852, 126.106 112.029, 128.125 111.625 C 129.844 111.281, 133.894 111, 137.125 111 C 140.375 111, 143 110.553, 143 110 C 143 109.450, 142.100 109, 141 109 C 138.876 109, 138.313 107.543, 140.027 106.484 C 140.591 106.135, 140.970 105.321, 140.869 104.675 C 140.689 103.526, 141.131 102.052, 143.169 97.010 C 144.145 94.595, 144.219 94.578, 145.588 96.451 C 146.365 97.513, 147 99.170, 147 100.132 C 147 101.095, 147.430 102.148, 147.956 102.473 C 148.482 102.798, 148.677 103.679, 148.388 104.431 C 148.100 105.183, 148.344 106.095, 148.932 106.458 C 150.818 107.624, 150.077 108.856, 147.250 109.254 C 145.738 109.467, 161.825 109.460, 183 109.239 C 204.175 109.018, 222.091 108.652, 222.813 108.426 C 225.253 107.661, 222.908 106, 219.390 106 L 215.898 106 218.449 102.656 C 221.445 98.728, 221.582 98, 219.326 98 C 217.906 98, 217.983 97.647, 219.835 95.676 C 221.036 94.398, 221.769 93.102, 221.463 92.797 C 221.158 92.492, 221.925 90.149, 223.168 87.590 L 225.428 82.939 227.660 87.219 C 228.888 89.574, 229.681 92.224, 229.423 93.109 C 229.166 93.994, 229.661 95.304, 230.525 96.021 C 231.716 97.009, 231.799 97.506, 230.868 98.082 C 229.971 98.636, 230.376 99.804, 232.371 102.420 L 235.102 106 231.051 106 C 228.117 106, 227 106.414, 227 107.500 C 227 108.781, 229.809 109.001, 246.250 109.007 C 256.837 109.011, 268.538 109.301, 272.250 109.652 L 279 110.289 279 107.645 C 279 105.106, 278.780 105, 273.500 105 C 270.475 105, 268 104.713, 268 104.362 C 268 104.011, 269.913 101.648, 272.250 99.112 L 276.500 94.500 273.750 94.184 C 270.352 93.793, 270.305 93.001, 273.503 89.997 C 274.880 88.704, 275.892 87.120, 275.753 86.479 C 275.462 85.139, 281.061 73, 281.969 73 C 282.300 73, 283.998 75.894, 285.742 79.431 C 287.931 83.869, 288.539 85.999, 287.707 86.303 C 286.956 86.578, 287.773 88.085, 289.871 90.294 L 293.241 93.844 290.513 94.172 L 287.786 94.500 291.893 99.153 C 294.152 101.713, 296 104.075, 296 104.403 C 296 104.732, 293.300 105, 290 105 C 284.267 105, 284 105.111, 284 107.500 C 284 108.875, 284.337 110.004, 284.750 110.008 C 285.163 110.013, 294.950 110.685, 306.500 111.502 C 333.303 113.397, 353.085 115.438, 374.671 118.536 C 394.617 121.398, 393 121.269, 393 120 C 393 119.450, 391.160 119, 388.911 119 L 384.822 119 387.411 115.923 C 390.300 112.490, 390.588 111.372, 388.750 110.729 C 387.834 110.409, 387.967 109.765, 389.250 108.317 C 390.212 107.231, 391 105.831, 391 105.205 C 391 103.642, 394.227 97, 394.986 97 C 395.324 97, 396.585 99.025, 397.788 101.500 C 399.162 104.328, 399.543 106, 398.813 106 C 398.174 106, 398.708 107.125, 400 108.500 C 401.292 109.875, 401.820 111, 401.174 111 C 399.327 111, 399.784 112.590, 402.589 115.923 L 405.178 119 400.589 119 C 397.440 119, 396 119.417, 396 120.329 C 396 121.208, 399.499 122.391, 406.348 123.829 C 419.131 126.511, 420 126.522, 420 124 C 420 122.381, 419.333 122, 416.500 122 C 412.294 122, 412.189 121.456, 415.687 117.805 L 418.374 115 416.013 115 L 413.651 115 415.826 112.686 C 417.022 111.413, 418 109.955, 418 109.446 C 418 108.011, 421.432 100.008, 422.049 100.004 C 422.750 99.999, 425.396 106.934, 425.586 109.272 C 425.664 110.246, 426.535 111.933, 427.519 113.022 C 429.242 114.925, 429.240 115, 427.468 115 C 425.879 115, 425.996 115.386, 428.313 117.805 C 431.803 121.448, 431.704 122, 427.559 122 C 424.384 122, 422.095 123.429, 423.316 124.649 C 423.599 124.933, 429.269 123.919, 435.916 122.396 C 447.083 119.838, 448 119.452, 448 117.314 C 448 115.176, 447.582 115, 442.500 115 C 439.475 115, 437 114.713, 437 114.362 C 437 114.011, 438.913 111.648, 441.250 109.112 L 445.500 104.500 442.750 104.184 C 439.352 103.793, 439.305 103.001, 442.503 99.997 C 443.880 98.704, 444.892 97.120, 444.753 96.479 C 444.462 95.139, 450.061 83, 450.969 83 C 451.300 83, 452.998 85.894, 454.742 89.431 C 456.931 93.869, 457.539 95.999, 456.707 96.303 C 455.956 96.578, 456.773 98.085, 458.871 100.294 L 462.241 103.844 459.513 104.172 L 456.786 104.500 460.893 109.153 C 463.152 111.713, 465 114.075, 465 114.403 C 465 114.732, 462.300 115, 459 115 C 453.609 115, 453 115.209, 453 117.059 C 453 118.191, 453.337 118.912, 453.750 118.661 C 457.174 116.574, 519.658 108.153, 547.500 106.026 C 568.216 104.443, 569 104.295, 569 101.955 C 569 100.252, 568.291 100, 563.500 100 C 560.475 100, 558 99.713, 558 99.362 C 558 99.011, 559.913 96.648, 562.250 94.112 L 566.500 89.500 563.750 89.184 C 560.352 88.793, 560.305 88.001, 563.503 84.997 C 564.880 83.704, 565.892 82.120, 565.753 81.479 C 565.462 80.139, 571.061 68, 571.969 68 C 572.300 68, 573.998 70.894, 575.742 74.431 C 577.931 78.869, 578.539 80.999, 577.707 81.303 C 576.956 81.578, 577.773 83.085, 579.871 85.294 L 583.241 88.844 580.513 89.172 L 577.786 89.500 581.893 94.153 C 584.152 96.713, 586 99.075, 586 99.403 C 586 99.732, 583.300 100, 580 100 C 574.700 100, 574 100.229, 574 101.967 C 574 103.852, 574.560 103.912, 587.250 103.404 C 594.538 103.112, 601.512 102.668, 602.750 102.417 C 606.758 101.606, 605.132 100, 600.304 100 L 595.608 100 598.804 96.702 C 602.351 93.042, 602.727 92, 600.500 92 C 598.540 92, 598.605 91.094, 600.737 88.739 C 601.692 87.683, 602.479 86.298, 602.487 85.660 C 602.504 84.194, 606.329 76.051, 607 76.053 C 607.275 76.054, 608.565 78.163, 609.866 80.739 C 611.515 84.004, 611.869 85.544, 611.034 85.822 C 610.288 86.071, 610.880 87.309, 612.606 89.110 C 614.794 91.394, 615.020 92, 613.687 92 C 611.267 92, 611.578 92.970, 615.196 96.702 L 618.392 100 613.755 100 C 611.205 100, 608.840 100.450, 608.500 101 C 608.091 101.661, 623.742 102.003, 654.691 102.009 C 680.436 102.013, 703.750 102.182, 706.500 102.383 C 709.250 102.585, 710.262 102.552, 708.750 102.311 C 705.455 101.786, 705.354 101.091, 708.073 97.635 C 709.627 95.659, 709.789 95, 708.721 95 C 707.649 95, 708.001 93.524, 710.149 89.014 C 711.717 85.721, 713 82.571, 713 82.014 C 713 78.471, 717.398 85.900, 717.500 89.614 C 717.516 90.227, 718.198 91.538, 719.015 92.527 C 720.154 93.907, 720.208 94.424, 719.244 94.748 C 718.340 95.052, 718.550 95.883, 719.994 97.720 C 722.803 101.291, 722.533 101.978, 718.250 102.152 C 713.034 102.365, 725.961 103.782, 732.500 103.715 C 736.545 103.674, 736.784 103.589, 733.750 103.272 C 729.494 102.826, 729.148 102.081, 732 99.500 C 734.439 97.293, 734.560 96, 732.326 96 C 730.940 96, 731.056 95.569, 733 93.500 C 734.292 92.125, 735.036 91, 734.654 91 C 734.272 91, 734.878 89.200, 736 87 C 737.122 84.800, 738.247 83, 738.500 83 C 739.388 83, 742.907 90.759, 742.297 91.370 C 741.957 91.710, 742.454 92.844, 743.401 93.890 C 744.730 95.359, 744.823 95.900, 743.811 96.265 C 742.895 96.594, 743.385 97.681, 745.437 99.868 L 748.374 103 743.937 103.068 C 734.916 103.205, 743.456 104.800, 759.500 105.975 C 778.230 107.346, 810.149 111.052, 828.233 113.956 C 843.446 116.398, 843 116.382, 843 114.500 C 843 113.348, 841.722 113, 837.500 113 C 834.475 113, 832 112.713, 832 112.362 C 832 112.011, 833.913 109.648, 836.250 107.112 L 840.500 102.500 837.750 102.184 C 834.352 101.793, 834.305 101.001, 837.503 97.997 C 838.880 96.704, 839.892 95.120, 839.753 94.479 C 839.462 93.139, 845.061 81, 845.969 81 C 846.300 81, 847.998 83.894, 849.742 87.431 C 851.931 91.869, 852.539 93.999, 851.707 94.303 C 850.956 94.578, 851.773 96.085, 853.871 98.294 L 857.241 101.844 854.513 102.172 L 851.786 102.500 855.893 107.153 C 858.152 109.713, 860 112.075, 860 112.403 C 860 112.732, 857.269 113, 853.930 113 C 848.263 113, 847.882 113.144, 848.180 115.180 C 848.462 117.098, 849.814 117.635, 859.416 119.644 L 870.331 121.927 882.916 118.092 C 889.837 115.983, 897.863 113.664, 900.750 112.939 C 904.666 111.957, 906 111.162, 906 109.811 C 906 108.408, 905.212 108, 902.500 108 C 898.294 108, 898.189 107.456, 901.687 103.805 L 904.374 101 902.013 101 L 899.651 101 901.826 98.686 C 903.022 97.413, 904 95.955, 904 95.446 C 904 94.011, 907.432 86.008, 908.049 86.004 C 908.750 85.999, 911.396 92.934, 911.586 95.272 C 911.664 96.246, 912.535 97.933, 913.519 99.022 C 915.242 100.925, 915.240 101, 913.468 101 C 911.879 101, 911.996 101.386, 914.313 103.805 C 917.803 107.448, 917.704 108, 913.559 108 C 911.666 108, 909.840 108.450, 909.500 109 C 908.605 110.449, 912.460 110.167, 920.693 108.181 C 928.124 106.389, 930.951 105, 927.167 105 C 924.881 105, 924.265 103.573, 926.068 102.458 C 926.656 102.095, 926.900 101.183, 926.612 100.431 C 926.323 99.679, 926.518 98.798, 927.044 98.473 C 927.570 98.148, 928 97.095, 928 96.132 C 928 95.170, 928.635 93.513, 929.412 92.451 C 930.781 90.578, 930.855 90.595, 931.831 93.010 C 933.830 97.956, 934.314 99.515, 934.117 100.375 C 934.007 100.856, 934.609 102.015, 935.455 102.950 C 936.901 104.548, 937.767 104.518, 949.871 102.449 C 956.953 101.238, 969.217 99.474, 977.124 98.529 C 991.961 96.755, 998.686 95.198, 992.076 95.068 L 988.651 95 991.049 92.447 C 992.855 90.525, 993.134 89.701, 992.176 89.109 C 991.179 88.492, 991.236 88.049, 992.442 87.048 C 993.287 86.347, 993.801 85.487, 993.584 85.136 C 993.368 84.786, 993.972 82.987, 994.928 81.139 L 996.666 77.779 997.936 80.847 C 998.635 82.534, 999.199 84.271, 999.189 84.707 C 999.178 85.143, 999.621 86.043, 1000.171 86.706 C 1000.722 87.370, 1000.861 88.415, 1000.481 89.030 C 1000.101 89.645, 1000.816 91.240, 1002.070 92.574 C 1003.929 94.553, 1005.330 95, 1009.674 95 C 1012.603 95, 1015 94.550, 1015 94 C 1015 93.450, 1014.100 93, 1013 93 C 1010.609 93, 1010.419 91.727, 1012.547 89.961 C 1013.543 89.134, 1013.721 88.445, 1013.046 88.029 C 1012.360 87.604, 1012.689 85.949, 1013.999 83.239 C 1015.099 80.960, 1016 78.625, 1016 78.048 C 1016 77.472, 1016.401 77, 1016.892 77 C 1017.721 77, 1019.306 81.079, 1019.462 83.614 C 1019.499 84.227, 1020.141 85.465, 1020.888 86.364 C 1021.954 87.650, 1021.971 88, 1020.967 88 C 1020.069 88, 1020.180 88.542, 1021.345 89.829 C 1023.600 92.321, 1023.445 92.806, 1020.250 93.248 C 1018.737 93.457, 1029.650 93.431, 1044.500 93.190 C 1059.350 92.950, 1071.927 92.359, 1072.450 91.876 C 1073.010 91.360, 1072.060 91, 1070.132 91 L 1066.864 91 1068.932 88.096 C 1071.166 84.958, 1071.595 83.514, 1070 84.500 C 1068.791 85.247, 1068.670 83.777, 1069.831 82.450 C 1070.289 81.928, 1071.207 79.588, 1071.872 77.250 C 1072.536 74.913, 1073.468 73, 1073.942 73 C 1074.959 73, 1077.242 79.092, 1076.502 79.831 C 1076.224 80.110, 1076.701 81.117, 1077.563 82.070 C 1078.622 83.240, 1078.779 84.019, 1078.047 84.471 C 1077.330 84.914, 1077.669 86.131, 1079.050 88.070 L 1081.136 91 1078.009 91 C 1076.289 91, 1075.117 91.381, 1075.405 91.847 C 1075.693 92.312, 1086.407 92.968, 1099.214 93.305 C 1112.021 93.641, 1130.090 94.633, 1139.366 95.509 C 1148.642 96.385, 1156.293 96.966, 1156.369 96.801 C 1156.445 96.635, 1157.531 95.037, 1158.783 93.250 C 1160.599 90.658, 1160.750 90, 1159.530 90 C 1157.581 90, 1157.567 88.604, 1159.500 87 C 1160.325 86.315, 1161.019 85.023, 1161.042 84.128 C 1161.065 83.232, 1161.881 81.004, 1162.856 79.175 L 1164.629 75.850 1166.471 79.935 C 1167.484 82.182, 1168.017 84.317, 1167.654 84.679 C 1167.292 85.041, 1167.766 86.189, 1168.708 87.230 C 1170.009 88.667, 1170.124 89.305, 1169.187 89.885 C 1168.273 90.449, 1168.479 91.123, 1169.976 92.479 C 1172.949 95.169, 1172.529 97, 1168.941 97 C 1163.663 97, 1166.664 98.704, 1173.228 99.434 C 1193.329 101.670, 1226.900 108.603, 1251.830 115.667 L 1268.160 120.294 1270.807 117.647 C 1273.128 115.326, 1273.223 115, 1271.572 115 C 1269.867 115, 1269.833 114.835, 1271.211 113.250 C 1272.047 112.288, 1272.997 110.375, 1273.322 109 C 1273.647 107.625, 1274.565 105.608, 1275.362 104.519 C 1276.751 102.621, 1276.884 102.705, 1278.528 106.519 C 1279.472 108.708, 1280.681 111.348, 1281.214 112.384 C 1281.869 113.656, 1281.828 114.488, 1281.090 114.945 C 1280.395 115.374, 1281.005 116.589, 1282.764 118.274 L 1285.532 120.926 1291.249 118.713 C 1296.570 116.653, 1296.967 116.275, 1296.983 113.250 L 1297 110 1291.500 110 C 1288.475 110, 1286 109.713, 1286 109.362 C 1286 109.011, 1287.913 106.648, 1290.250 104.112 L 1294.500 99.500 1291.750 99.184 C 1288.352 98.793, 1288.305 98.001, 1291.503 94.997 C 1292.880 93.704, 1293.892 92.120, 1293.753 91.479 C 1293.462 90.139, 1299.061 78, 1299.969 78 C 1300.300 78, 1301.998 80.894, 1303.742 84.431 C 1305.931 88.869, 1306.539 90.999, 1305.707 91.303 C 1304.958 91.577, 1305.809 93.122, 1307.946 95.372 L 1311.392 99 1308.639 99 C 1305.501 99, 1305.740 99.563, 1311.795 106.433 L 1315.089 110.171 1331.795 106.109 C 1340.983 103.875, 1353.675 101.136, 1360 100.023 C 1370.204 98.227, 1398.183 94.057, 1400.309 94.016 C 1402.079 93.981, 1399.752 92, 1397.941 92 C 1395.604 92, 1395.437 90.712, 1397.547 88.961 C 1398.543 88.134, 1398.721 87.445, 1398.046 87.029 C 1397.360 86.604, 1397.689 84.949, 1398.999 82.239 C 1400.099 79.960, 1401 77.625, 1401 77.048 C 1401 76.472, 1401.401 76, 1401.892 76 C 1402.721 76, 1404.306 80.079, 1404.462 82.614 C 1404.499 83.227, 1405.141 84.465, 1405.888 85.364 C 1406.954 86.650, 1406.971 87, 1405.967 87 C 1405.069 87, 1405.180 87.542, 1406.345 88.829 C 1408.608 91.329, 1408.429 92, 1405.500 92 C 1404.125 92, 1403 92.470, 1403 93.045 C 1403 93.661, 1404.334 93.883, 1406.250 93.586 C 1408.037 93.308, 1412.537 92.802, 1416.250 92.461 C 1419.963 92.120, 1423 91.427, 1423 90.920 C 1423 90.414, 1422.100 90, 1421 90 C 1418.567 90, 1418.483 89.229, 1420.655 86.829 C 1421.565 85.823, 1421.815 85, 1421.210 85 C 1420.546 85, 1420.956 82.967, 1422.248 79.857 L 1424.386 74.714 1425.813 78.107 C 1426.598 79.973, 1427.640 82.287, 1428.128 83.250 C 1428.724 84.423, 1428.633 85, 1427.853 85 C 1427.148 85, 1427.342 85.720, 1428.345 86.829 C 1430.505 89.215, 1430.434 90, 1428.059 90 C 1426.991 90, 1425.797 90.520, 1425.404 91.156 C 1424.891 91.986, 1425.606 92.129, 1427.935 91.663 C 1429.721 91.306, 1440.816 90.714, 1452.591 90.348 C 1472.478 89.730, 1474 89.552, 1474 87.841 C 1474 86.276, 1473.175 86, 1468.500 86 C 1465.475 86, 1463 85.713, 1463 85.362 C 1463 85.011, 1464.912 82.648, 1467.250 80.112 L 1471.500 75.500 1468.750 75.184 C 1465.352 74.793, 1465.305 74.001, 1468.503 70.997 C 1469.880 69.704, 1470.892 68.120, 1470.753 67.479 C 1470.462 66.139, 1476.061 54, 1476.969 54 C 1477.300 54, 1478.998 56.894, 1480.742 60.431 C 1482.931 64.869, 1483.539 66.999, 1482.707 67.303 C 1481.956 67.578, 1482.773 69.085, 1484.871 71.294 L 1488.241 74.844 1485.513 75.172 L 1482.786 75.500 1486.893 80.153 C 1489.152 82.713, 1491 85.075, 1491 85.403 C 1491 85.732, 1488.300 86, 1485 86 C 1479.667 86, 1479 86.222, 1479 88 C 1479 89.926, 1479.667 90, 1496.979 90 L 1514.959 90 1515.251 110.250 C 1515.412 121.388, 1515.646 101.138, 1515.772 65.250 L 1516 0 758 0 L 0 0 0 65.607 M 0.472 66 C 0.472 102.025, 0.597 116.762, 0.750 98.750 C 0.902 80.737, 0.902 51.262, 0.750 33.250 C 0.597 15.237, 0.472 29.975, 0.472 66 M 1422.500 10.765 C 1421.950 11.169, 1420.943 13.052, 1420.262 14.948 C 1418.973 18.538, 1419.690 19.948, 1422.821 19.985 C 1423.548 19.993, 1424.898 20.759, 1425.821 21.687 C 1427.396 23.269, 1427.520 23.238, 1427.820 21.187 C 1427.995 19.984, 1428.613 19, 1429.192 19 C 1431.110 19, 1427.953 16.134, 1425.677 15.810 C 1423.956 15.565, 1423.560 14.923, 1423.788 12.750 C 1424.098 9.782, 1424.014 9.653, 1422.500 10.765 M 1434.500 16.348 C 1433.225 17.082, 1432.616 18.316, 1432.820 19.750 C 1433.034 21.263, 1432.625 22, 1431.570 22 C 1430.505 22, 1430.025 22.885, 1430.079 24.750 C 1430.122 26.262, 1430.385 26.938, 1430.662 26.250 C 1431.359 24.523, 1437.486 24.676, 1438.964 26.456 C 1439.628 27.257, 1439.839 28.452, 1439.432 29.111 C 1438.963 29.869, 1439.115 30.047, 1439.845 29.595 C 1440.480 29.203, 1441 27.784, 1441 26.441 C 1441 25.098, 1441.505 24, 1442.122 24 C 1442.898 24, 1442.860 23.536, 1442 22.500 C 1441.315 21.675, 1439.460 21, 1437.878 21 C 1434.624 21, 1434.651 21.048, 1435.975 17.565 C 1436.512 16.154, 1436.849 15.044, 1436.725 15.098 C 1436.601 15.152, 1435.600 15.714, 1434.500 16.348 M 1447.018 19.745 C 1446.202 20.662, 1445.483 21.883, 1445.420 22.457 C 1445.357 23.030, 1445.236 24.063, 1445.152 24.750 C 1445.069 25.438, 1444.387 26, 1443.639 26 C 1442.713 26, 1442.436 26.829, 1442.773 28.592 C 1443.045 30.018, 1443.545 30.755, 1443.884 30.230 C 1444.917 28.631, 1450.862 28.197, 1451.430 29.679 C 1452.196 31.674, 1453.372 31.260, 1454.628 28.552 C 1455.855 25.904, 1454.597 24.688, 1450.500 24.562 C 1448.868 24.511, 1448.547 23.901, 1448.754 21.250 C 1449.045 17.527, 1449.013 17.499, 1447.018 19.745 M 1459 21.833 C 1458.175 22.750, 1457.652 24.574, 1457.837 25.887 C 1458.023 27.200, 1457.573 28.705, 1456.837 29.231 C 1455.834 29.949, 1455.937 30.048, 1457.250 29.626 C 1458.213 29.316, 1459 29.499, 1459 30.031 C 1459 30.564, 1458.523 31, 1457.941 31 C 1457.359 31, 1457.177 31.477, 1457.537 32.060 C 1457.966 32.754, 1458.590 32.606, 1459.346 31.632 C 1460.895 29.636, 1463.996 29.313, 1466.797 30.856 C 1468.968 32.051, 1469.078 31.965, 1468.797 29.311 C 1468.419 25.730, 1467.430 25.056, 1463.494 25.695 C 1460.424 26.193, 1460.331 26.104, 1460.771 23.105 C 1461.285 19.605, 1461.115 19.483, 1459 21.833 M 1474 21.849 C 1473.175 22.774, 1472.500 25.374, 1472.500 27.626 C 1472.500 31.676, 1472.532 31.711, 1475.422 30.881 C 1478.646 29.954, 1480.954 31.176, 1481.070 33.872 C 1481.124 35.105, 1481.333 35.015, 1481.932 33.500 C 1482.367 32.400, 1482.512 30.938, 1482.255 30.250 C 1481.997 29.563, 1482.359 29, 1483.060 29 C 1485.564 29, 1482.953 27.677, 1479.261 27.076 C 1475.724 26.500, 1475.519 26.271, 1475.825 23.232 C 1476.193 19.585, 1476.089 19.506, 1474 21.849 M 1494.490 25.016 C 1494.144 25.575, 1493.439 25.771, 1492.922 25.452 C 1491.815 24.767, 1490.057 28.959, 1490.721 30.704 C 1491.382 32.443, 1488.394 36.447, 1487.506 35.010 C 1487.120 34.385, 1487.593 33.002, 1488.557 31.937 C 1490.812 29.445, 1488.935 29.422, 1485.869 31.905 L 1483.517 33.809 1485.509 36.043 C 1489.360 40.362, 1497.651 42.327, 1502.062 39.967 C 1503.125 39.398, 1504.894 37.168, 1505.994 35.011 L 1507.995 31.090 1504.293 30.395 C 1501.333 29.840, 1500.382 30.055, 1499.546 31.469 C 1498.971 32.441, 1497.712 34.196, 1496.748 35.369 C 1495.048 37.437, 1495.041 37.412, 1496.492 34.500 C 1497.315 32.850, 1497.990 30.472, 1497.994 29.215 C 1497.999 27.214, 1498.258 27.067, 1500.071 28.038 C 1502.094 29.121, 1502.103 29.087, 1500.456 26.573 C 1498.748 23.967, 1495.640 23.156, 1494.490 25.016 M 1302 112 C 1302 114.344, 1302.036 114.350, 1307.384 112.831 C 1313.805 111.008, 1313.918 110, 1307.700 110 C 1302.667 110, 1302 110.234, 1302 112" stroke="none" fill="#bb1b2b" fill-rule="evenodd"/></svg>