<?xml version="1.0" encoding="UTF-8"?><svg id="Layer_1" xmlns="http://www.w3.org/2000/svg" viewBox="0 0 535.57 496.8"><path d="m91.96,81.58c4.85,5.97,7.28,13.55,7.28,22.73,0,6.56-1.48,12.73-4.43,18.5-2.95,5.78-7.87,10.53-14.76,14.27-6.89,3.74-15.91,5.61-27.06,5.61H.25V2.95h48.61c16.66,0,28.57,3.68,35.72,11.02,7.15,7.35,10.72,16.07,10.72,26.18,0,6.95-2,13.19-6,18.69-4.01,5.51-9.81,9.38-17.42,11.61,8.53,1.45,15.22,5.15,20.08,11.12ZM18.94,18.69v44.87h29.92c18.63,0,27.94-7.35,27.94-22.04,0-6.56-2.06-12-6.2-16.33-4.13-4.33-11.38-6.5-21.75-6.5h-29.92Zm33.06,108.25c10.1,0,17.42-2.29,21.94-6.89,4.53-4.59,6.79-10.43,6.79-17.52s-2.2-12.56-6.59-16.83c-4.4-4.26-11.12-6.4-20.17-6.4H18.94v47.63h33.06Z" style="fill:#1f1f1f;"/><path d="m205.38,98.4h-69.87c.13,9.58,2.85,17.29,8.17,23.12,5.31,5.84,12.36,8.76,21.16,8.76,6.3,0,11.68-1.6,16.14-4.82,4.46-3.21,7.81-7.84,10.04-13.87l13.78,6.1c-3.41,8.93-8.63,15.71-15.65,20.37-7.02,4.66-15.52,6.99-25.49,6.99-14.17,0-25.19-4.36-33.06-13.09-7.87-8.72-11.81-21.16-11.81-37.29s3.94-29.45,11.81-38.77c7.87-9.31,18.82-13.97,32.86-13.97s23.72,3.81,31,11.42c7.28,7.61,10.92,18.69,10.92,33.26v11.81Zm-16.93-13.58v-2.17c0-8.92-2.2-15.74-6.59-20.47-4.4-4.72-10.66-7.09-18.79-7.09-8.53,0-15.19,2.63-19.98,7.87-4.79,5.25-7.32,12.53-7.58,21.85h52.94Z" style="fill:#1f1f1f;"/><path d="m316.31,142.68h-20.67l-29.72-48.22-17.91,18.11v30.11h-16.73V0h16.73v92.7l44.08-48.41h21.85l-36.01,37.98,38.38,60.42Z" style="fill:#1f1f1f;"/><path d="m421.15,142.68h-20.67l-29.72-48.22-17.91,18.11v30.11h-16.73V0h16.73v92.7l44.08-48.41h21.85l-36.01,37.98,38.38,60.42Z" style="fill:#1f1f1f;"/><path d="m213.22,258.64c4.85,5.97,7.28,13.55,7.28,22.73,0,6.56-1.48,12.73-4.43,18.5-2.95,5.78-7.87,10.53-14.76,14.27-6.89,3.74-15.91,5.61-27.06,5.61h-52.74v-139.73h48.61c16.66,0,28.57,3.68,35.72,11.02,7.15,7.35,10.72,16.07,10.72,26.18,0,6.95-2,13.19-6,18.69-4.01,5.51-9.81,9.38-17.42,11.61,8.53,1.45,15.22,5.15,20.08,11.12Zm-73.02-62.88v44.87h29.92c18.63,0,27.94-7.35,27.94-22.04,0-6.56-2.06-12-6.2-16.33-4.13-4.33-11.38-6.5-21.75-6.5h-29.92Zm33.06,108.25c10.1,0,17.42-2.29,21.94-6.89,4.53-4.59,6.79-10.43,6.79-17.52s-2.2-12.56-6.59-16.83c-4.4-4.26-11.12-6.4-20.17-6.4h-35.03v47.63h33.06Z" style="fill:#1f1f1f;"/><path d="m420.99,319.74h-20.67l-29.72-48.22-17.91,18.11v30.11h-16.73v-142.68h16.73v92.7l44.08-48.41h21.85l-36.01,37.98,38.38,60.42Z" style="fill:#1f1f1f;"/><path d="m528.29,435.7c4.85,5.97,7.28,13.55,7.28,22.73,0,6.56-1.48,12.73-4.43,18.5-2.95,5.78-7.87,10.53-14.76,14.27-6.89,3.74-15.91,5.61-27.06,5.61h-52.74v-139.73h48.61c16.66,0,28.57,3.68,35.72,11.02,7.15,7.35,10.72,16.07,10.72,26.18,0,6.95-2,13.19-6,18.69-4.01,5.51-9.81,9.38-17.42,11.61,8.53,1.45,15.22,5.15,20.08,11.12Zm-73.02-62.88v44.87h29.92c18.63,0,27.94-7.35,27.94-22.04,0-6.56-2.06-12-6.2-16.33-4.13-4.33-11.38-6.5-21.75-6.5h-29.92Zm33.06,108.25c10.1,0,17.42-2.29,21.94-6.89,4.53-4.59,6.79-10.43,6.79-17.52s-2.2-12.56-6.59-16.83c-4.4-4.26-11.12-6.4-20.17-6.4h-35.03v47.63h33.06Z" style="fill:#1f1f1f;"/></svg>