<?xml version="1.0" encoding="UTF-8" standalone="no"?>
<svg width="30px" height="30px" viewBox="0 0 512 512" version="1.1" xmlns="http://www.w3.org/2000/svg" xmlns:xlink="http://www.w3.org/1999/xlink">
    <!-- Generator: Sketch 39.1 (31720) - http://www.bohemiancoding.com/sketch -->
    <title>mazemap logo symbol normal transparent</title>
    <desc>Created with Sketch.</desc>
    <defs>
        <rect id="path-1" x="0" y="0" width="512" height="512"></rect>
        <linearGradient x1="50.0084935%" y1="99.852335%" x2="50.0084935%" y2="-0.644339651%" id="linearGradient-3">
            <stop stop-color="#EF4136" offset="0%"></stop>
            <stop stop-color="#F15A29" offset="98.23%"></stop>
            <stop stop-color="#F15A29" offset="100%"></stop>
        </linearGradient>
        <linearGradient x1="-0.102582763%" y1="49.9997792%" x2="100.004928%" y2="49.9997792%" id="linearGradient-4">
            <stop stop-color="#EF4136" offset="0%"></stop>
            <stop stop-color="#F15A29" offset="98.23%"></stop>
            <stop stop-color="#F15A29" offset="100%"></stop>
        </linearGradient>
        <linearGradient x1="-9.77993914e-05%" y1="49.9990223%" x2="100.380206%" y2="49.9990223%" id="linearGradient-5">
            <stop stop-color="#FFDE17" offset="0%"></stop>
            <stop stop-color="#F7941E" offset="53.48%"></stop>
            <stop stop-color="#F15A29" offset="100%"></stop>
        </linearGradient>
        <linearGradient x1="-2.15453888%" y1="63.4963026%" x2="116.323292%" y2="47.8363033%" id="linearGradient-6">
            <stop stop-color="#F15A29" offset="0%"></stop>
            <stop stop-color="#F15A29" offset="28.09%"></stop>
            <stop stop-color="#EF4136" offset="52.87%"></stop>
            <stop stop-color="#BE1E2D" offset="100%"></stop>
        </linearGradient>
        <linearGradient x1="19.7457825%" y1="-12.0240964%" x2="79.9270846%" y2="111.347573%" id="linearGradient-7">
            <stop stop-color="#EF4136" offset="0%"></stop>
            <stop stop-color="#EF4136" offset="1.77%"></stop>
            <stop stop-color="#F7941E" offset="100%"></stop>
        </linearGradient>
    </defs>
    <g id="LOGO-variations" stroke="none" stroke-width="1" fill="none" fill-rule="evenodd">
        <g id="mazemap-logo-symbol-normal-transparent">
            <g id="MazeMap-Logo-symbol-composition">
                <g>
                    <mask id="mask-2" fill="white">
                        <use xlink:href="#path-1"></use>
                    </mask>
                    <g id="Rectangle" opacity="0"></g>
                    <g id="MSYMBOL_MERGED_PATHS" mask="url(#mask-2)">
                        <g transform="translate(95.839996, 97.500000)" id="Shape">
                            <polygon fill="#F7941E" points="211.189847 144.91519 165.304738 167.248344 288.608453 227.657486 286.041311 180.92063"></polygon>
                            <polygon fill="#FBB040" points="268.901782 0.442863448 159.162849 53.9125274 48.4856246 0.44414711 0.8022321 24.3677589 159.162849 102.69169 317.355318 24.3677589"></polygon>
                            <polygon fill="url(#linearGradient-3)" points="96.2678521 121.947906 47.4921403 98.1834683 47.4921403 223.355934 49.5420038 223.355934 96.2678521 205.342302"></polygon>
                            <polygon fill="url(#linearGradient-4)" points="317.355318 24.3677589 159.162849 102.69169 159.162849 154.038177 271.263554 98.0923283 271.267404 110.934085 271.252001 110.941787 272.447006 269.769307 317.355318 247.297517 317.338631 170.031324 317.355318 170.022338 317.336064 75.6385096 317.355318 75.6308077"></polygon>
                            <polygon fill="url(#linearGradient-5)" points="47.4921403 223.355934 47.4921403 98.8407033 159.162849 154.038177 159.162849 102.69169 0.8022321 24.3677589 0.8022321 251.221672 159.162849 329.23624 159.162849 277.078479"></polygon>
                            <polygon fill="url(#linearGradient-6)" points="272.447006 221.322613 272.447006 220.311087 272.447006 211.494895 272.413633 97.4569155 226.341123 119.926138 226.359093 196.452942 165.304738 167.248344 165.303454 217.751465 272.447006 269.769307"></polygon>
                            <polygon fill="url(#linearGradient-7)" points="205.371418 254.163826 96.2678521 200.251298 47.4921403 223.355934 159.162849 277.271028"></polygon>
                            <polygon fill="#BE1E2D" points="205.371418 254.165109 205.371418 305.510313 159.162849 329.23624 159.162849 277.271028"></polygon>
                        </g>
                    </g>
                </g>
            </g>
        </g>
    </g>
</svg>