<svg version="1.0" xmlns="http://www.w3.org/2000/svg" width="1920pt" height="167pt" viewBox="0 0 1920 167" preserveAspectRatio="none">
  <g transform="translate(0,167) scale(0.1,-0.1)" stroke="none">
    <path d="M0 832 l0 -832 9600 0 9600 0 0 830 0 830 -67 0 c-295 -1 -926 -51 -1513 -121 -838 -100 -1519 -203 -3560 -544 -2521 -420 -2893 -466 -3240 -400 -269 51 -484 136 -1085 428 -639 309 -931 426 -1311 521 -322 82 -564 111 -919 110 -287 0 -425 -10 -703 -50 -427 -61 -747 -144 -1477 -384 -1010 -332 -1357 -402 -1915 -387 -525 15 -920 108 -1615 383 -853 337 -1161 420 -1637 440 l-158 7 0 -831z"/>
  </g>
</svg>