<svg version="1.0" xmlns="http://www.w3.org/2000/svg" width="1920pt" height="119pt" viewBox="0 0 1920 119" preserveAspectRatio="none">
  <g transform="translate(0,119) scale(0.1,-0.1)" stroke="none">
    <path d="M0 592 l0 -592 9600 0 9600 0 0 592 0 591 -202 -7 c-537 -18 -1061 -71 -2398 -241 -1857 -236 -2519 -295 -3321 -295 -808 0 -1384 59 -2769 285 -869 141 -1176 183 -1605 220 -656 55 -1173 43 -1765 -41 -369 -53 -719 -126 -1485 -309 -569 -135 -908 -201 -1260 -242 -190 -22 -747 -25 -930 -5 -402 44 -657 99 -1315 282 -886 248 -1318 324 -1952 346 l-198 7 0 -591z"/>
  </g>
</svg>
