<svg xmlns="http://www.w3.org/2000/svg" preserveAspectRatio="none" version="1.0" width="1920pt" height="219pt" viewBox="0 0 1920 219">
  <g transform="translate(0,219) scale(0.1,-0.1)" stroke="none">
    <path d="M0 1096 l0 -1096 9600 0 9600 0 0 1096 0 1096 -122 -7 c-556 -30 -1086 -128 -2168 -401 -1025 -260 -1253 -317 -1475 -367 -1540 -354 -2283 -397 -3300 -192 -432 88 -775 185 -1615 460 -990 324 -1443 434 -2005 486 -169 16 -558 16 -710 0 -400 -42 -789 -143 -1235 -322 -228 -91 -439 -186 -900 -406 -619 -296 -890 -405 -1197 -482 -207 -52 -286 -63 -505 -68 -302 -8 -490 19 -768 109 -264 85 -506 202 -1016 489 -350 196 -600 325 -794 406 -426 180 -796 265 -1257 288 l-133 7 0 -1096z"/>
  </g>
</svg>