<!-- Generated by IcoMoon.io -->
<svg version="1.1" xmlns="http://www.w3.org/2000/svg" width="512" height="512" viewBox="0 0 512 512">
<title></title>
<g id="icomoon-ignore">
</g>
<path d="M256 64c-123.712 0-224 100.288-224 224s100.288 224 224 224 224-100.288 224-224-100.288-224-224-224zM256 468c-99.412 0-180-80.589-180-180 0-99.412 80.588-180 180-180 99.411 0 180 80.588 180 180 0 99.411-80.589 180-180 180zM467.392 143.587c8.021-14.026 12.608-30.271 12.608-47.587 0-53.020-42.98-96-96-96-30.909 0-58.401 14.611-75.96 37.298 65.942 13.618 122.603 52.599 159.352 106.289v0zM203.96 37.298c-17.558-22.687-45.051-37.298-75.96-37.298-53.020 0-96 42.98-96 96 0 17.316 4.587 33.561 12.608 47.587 36.75-53.69 93.411-92.671 159.352-106.289z"></path>
<path d="M256 288v-128h-32v160h128v-32z"></path>
</svg>
