<?xml version="1.0" encoding="UTF-8"?>
<svg width="152px" height="22px" viewBox="0 0 152 22" version="1.1" xmlns="http://www.w3.org/2000/svg" xmlns:xlink="http://www.w3.org/1999/xlink">
    <!-- Generator: Sketch 49.3 (51167) - http://www.bohemiancoding.com/sketch -->
    <title>Group 5</title>
    <desc>Created with Sketch.</desc>
    <defs>
        <polygon id="path-1" points="0.264101829 0.754318239 151.426221 0.754318239 151.426221 22.063718 0.264101829 22.063718"></polygon>
    </defs>
    <g id="Symbols" stroke="none" stroke-width="1" fill="none" fill-rule="evenodd">
        <g id="Menu1-Copy-3" transform="translate(-36.000000, -14.000000)">
            <g id="Menu2">
                <g id="Group" transform="translate(35.500000, 13.000000)">
                    <g id="Group-2">
                        <g id="Group-5" transform="translate(0.486187, 0.943750)">
                            <mask id="mask-2" fill="white">
                                <use xlink:href="#path-1"></use>
                            </mask>
                            <g id="Clip-4" transform="translate(75.845161, 11.409018) rotate(-360.000000) translate(-75.845161, -11.409018) "></g>
                            <path d="M0.264101829,17.9086365 L3.3483047,17.9086365 L3.3483047,10.3111866 C3.3483047,8.22188791 4.5982661,6.97373543 6.38185791,6.97373543 C8.21609938,6.97373543 9.26346211,8.17123825 9.26346211,10.260537 L9.26346211,17.9086365 L12.347665,17.9086365 L12.347665,9.3180914 C12.347665,6.20856369 10.5875891,4.16810572 7.55403589,4.16810572 C5.46473717,4.16810572 4.21658469,5.26430921 3.3483047,6.51427061 L3.3483047,4.4484878 L0.264101829,4.4484878 L0.264101829,17.9086365 Z M21.764885,18.2143434 C24.2358651,18.2143434 25.995941,17.2212482 27.2694184,15.6909047 L25.4605017,14.0845867 C24.3896231,15.1301406 23.3187444,15.6909047 21.8137258,15.6909047 C19.8257264,15.6909047 18.2700581,14.4680771 17.9390263,12.2738612 L27.8301825,12.2738612 C27.8573163,11.9681543 27.8826411,11.6895811 27.8826411,11.409199 C27.8826411,7.53269067 25.71375,4.16810572 21.4320444,4.16810572 C17.5826697,4.16810572 14.8548235,7.32828309 14.8548235,11.1794666 L14.8548235,11.2301163 C14.8548235,15.3851978 17.8630518,18.2143434 21.764885,18.2143434 Z M17.9155104,10.2352121 C18.1940836,8.14591341 19.5218284,6.69154444 21.4067195,6.69154444 C23.4453686,6.69154444 24.6193555,8.24721275 24.8219541,10.2352121 L17.9155104,10.2352121 Z M34.7474797,18.1383689 C35.9214666,18.1383689 36.7644218,17.8833117 37.5277846,17.4491717 L37.5277846,14.9275419 C36.9163708,15.2332488 36.304957,15.3851978 35.6157597,15.3851978 C34.5702059,15.3851978 33.9587921,14.9004081 33.9587921,13.7029053 L33.9587921,7.1003596 L37.5784343,7.1003596 L37.5784343,4.4484878 L33.9587921,4.4484878 L33.9587921,0.752871106 L30.8745892,0.752871106 L30.8745892,4.4484878 L29.1669719,4.4484878 L29.1669719,7.1003596 L30.8745892,7.1003596 L30.8745892,14.1858861 C30.8745892,17.1434648 32.4809072,18.1383689 34.7474797,18.1383689 Z M45.895833,18.2143434 C48.520571,18.2143434 50.0744304,17.1687896 51.4003663,15.6909047 L49.5389911,13.8548543 C48.5712207,14.8497585 47.5003421,15.511822 46.047782,15.511822 C43.6762923,15.511822 42.0193246,13.601606 42.0193246,11.2047915 L42.0193246,11.1541418 C42.0193246,8.8079769 43.6762923,6.87062718 45.9193489,6.87062718 C47.4496924,6.87062718 48.4445965,7.55801551 49.3870421,8.55291966 L51.3243918,6.48894577 C50.0491056,5.11236021 48.4681125,4.16810572 45.9446737,4.16810572 C41.8927005,4.16810572 38.9351218,7.38074168 38.9351218,11.2047915 L38.9351218,11.2554411 C38.9351218,15.0794909 41.8927005,18.2143434 45.895833,18.2143434 Z M59.6815867,18.2143434 C63.8366682,18.2143434 66.8955463,15.0288412 66.8955463,11.2047915 L66.8955463,11.1541418 C66.8955463,7.30295826 63.8601842,4.16810572 59.7322364,4.16810572 C55.6024797,4.16810572 52.5417927,7.35541684 52.5417927,11.2047915 L52.5417927,11.2554411 C52.5417927,15.0794909 55.5753459,18.2143434 59.6815867,18.2143434 Z M59.7322364,15.511822 C57.3354218,15.511822 55.6259956,13.5491474 55.6259956,11.2047915 L55.6259956,11.1541418 C55.6259956,8.8079769 57.2069887,6.87062718 59.6815867,6.87062718 C62.1037261,6.87062718 63.8095345,8.83330174 63.8095345,11.2047915 L63.8095345,11.2554411 C63.8095345,13.5744723 62.2303503,15.511822 59.7322364,15.511822 Z M69.4913417,17.9086365 L72.5755445,17.9086365 L72.5755445,10.3111866 C72.5755445,8.24721275 73.7477225,6.97373543 75.4553398,6.97373543 C77.1629571,6.97373543 78.1813772,8.14591341 78.1813772,10.2352121 L78.1813772,17.9086365 L81.267389,17.9086365 L81.267389,10.3111866 C81.267389,8.14591341 82.4648918,6.97373543 84.1489932,6.97373543 C85.8819353,6.97373543 86.8750306,8.12058858 86.8750306,10.260537 L86.8750306,17.9086365 L89.9610424,17.9086365 L89.9610424,9.3180914 C89.9610424,6.02948095 88.1774505,4.16810572 85.2451967,4.16810572 C83.2065476,4.16810572 81.7793124,5.11236021 80.7066248,6.53959544 C79.9921028,5.11236021 78.6155172,4.16810572 76.6781675,4.16810572 C74.6141936,4.16810572 73.4402067,5.28963404 72.5755445,6.48894577 L72.5755445,4.4484878 L69.4913417,4.4484878 L69.4913417,17.9086365 Z M93.2858311,21.9877435 L96.370034,21.9877435 L96.370034,15.8175289 C97.3124796,17.0674903 98.71439,18.1890186 100.957447,18.1890186 C104.144758,18.1890186 107.201827,15.6655799 107.201827,11.2047915 L107.201827,11.1541418 C107.201827,6.66802852 104.117624,4.16810572 100.957447,4.16810572 C98.7650396,4.16810572 97.3631292,5.28963404 96.370034,6.69154444 L96.370034,4.4484878 L93.2858311,4.4484878 L93.2858311,21.9877435 Z M100.219409,15.511822 C98.128301,15.511822 96.2922506,13.7788798 96.2922506,11.2047915 L96.2922506,11.1541418 C96.2922506,8.57824449 98.128301,6.84530235 100.219409,6.84530235 C102.308707,6.84530235 104.068783,8.55291966 104.068783,11.1541418 L104.068783,11.2047915 C104.068783,13.8548543 102.334032,15.511822 100.219409,15.511822 Z M113.666895,18.1890186 C115.732678,18.1890186 117.134588,17.3225475 118.051709,16.226344 L118.051709,17.9086365 L121.059937,17.9086365 L121.059937,9.92950522 C121.059937,8.17123825 120.600472,6.74400302 119.609186,5.7744237 C118.664932,4.8066533 117.159913,4.26940505 115.146589,4.26940505 C113.004831,4.26940505 111.552271,4.70354505 110.072578,5.36560854 L110.888399,7.78774792 C112.113036,7.27944234 113.234564,6.94660168 114.737774,6.94660168 C116.904856,6.94660168 118.078843,7.96683067 118.078843,9.87885556 L118.078843,10.2098873 C117.033289,9.87885556 115.96241,9.64912314 114.4592,9.64912314 C111.17059,9.64912314 108.9004,11.0763584 108.9004,13.9832874 L108.9004,14.0339371 C108.9004,16.7364585 111.145265,18.1890186 113.666895,18.1890186 Z M114.535175,15.945962 C113.05729,15.945962 111.908628,15.2061151 111.908628,13.9073129 L111.908628,13.8548543 C111.908628,12.4529439 113.080806,11.6136066 115.070614,11.6136066 C116.295251,11.6136066 117.338996,11.8415301 118.127683,12.147237 L118.127683,13.0661667 C118.127683,14.773784 116.573824,15.945962 114.535175,15.945962 Z M124.305134,17.9086365 L127.389337,17.9086365 L127.389337,10.3111866 C127.389337,8.22188791 128.639298,6.97373543 130.42289,6.97373543 C132.260749,6.97373543 133.304494,8.17123825 133.304494,10.260537 L133.304494,17.9086365 L136.388697,17.9086365 L136.388697,9.3180914 C136.388697,6.20856369 134.63043,4.16810572 131.596877,4.16810572 C129.505769,4.16810572 128.257617,5.26430921 127.389337,6.51427061 L127.389337,4.4484878 L124.305134,4.4484878 L124.305134,17.9086365 Z M144.722376,14.4427522 L140.92546,4.4484878 L137.611524,4.4484878 L143.217357,17.9339614 C142.707243,19.0808145 142.173612,19.4643048 141.307141,19.4643048 C140.668594,19.4643048 140.05718,19.2598973 139.496416,18.9541903 L138.452671,21.2478966 C139.393307,21.7580111 140.362887,22.063718 141.638173,22.063718 C143.805255,22.063718 145.002758,21.0434891 146.071828,18.2903179 L151.426221,4.4484878 L148.213585,4.4484878 L144.722376,14.4427522 Z" id="Fill-3" fill="var(--color-white)FFF" mask="url(#mask-2)"></path>
                        </g>
                    </g>
                </g>
            </g>
        </g>
    </g>
</svg>