<?xml version="1.0" encoding="utf-8"?>
<!-- Generator: Adobe Illustrator 27.8.1, SVG Export Plug-In . SVG Version: 6.00 Build 0)  -->
<svg version="1.1" id="Layer_1" xmlns="http://www.w3.org/2000/svg" xmlns:xlink="http://www.w3.org/1999/xlink" x="0px" y="0px"
	 viewBox="515 470 890 145" style="enable-background:new 0 0 1920 1080;" xml:space="preserve">
<style type="text/css">
	.st0{fill:#141E1E;}
</style>
<g>
	<path class="st0" d="M520,581.5V475h19l46.7,72.9c3.8,5.9,6.8,11.9,9.1,16.7h0.6c-0.5-5.3-0.8-11.7-0.8-19.3V475h14.8v106.5h-19
		l-46.9-72.3c-3.8-5.9-6.8-11.9-9-16.9H534c0.5,5.2,0.8,11.6,0.8,19v70.2H520z"/>
	<path class="st0" d="M700.2,543.5h-63.8c1.2,17.7,11.3,28.3,25.6,28.3c11.4,0,20.5-6.4,21.9-15.7h14.8c-1.7,17.2-18,27.2-36.7,27.2
		c-24.2,0-40.6-16.9-40.6-43.7c0-24.8,15.2-43.7,40.3-43.7c25.6,0,38.5,18.9,38.5,44.7V543.5z M636.7,532.2h47.9
		c-1.1-16.1-10.3-24.7-23-24.7C648.6,507.6,639,516.7,636.7,532.2z"/>
	<path class="st0" d="M749.9,509.4h-18.6v48.8c0,9.6,4,12.9,10.3,12.9c2.7,0,5.6-0.6,8.2-1.8v11.9c-2.6,0.9-5.9,1.7-10.3,1.7
		c-13.5,0-22.8-7-22.8-23.3v-50.2h-11.9v-11.6h11.9V475h14.6v22.8h18.6V509.4z"/>
	<path class="st0" d="M755.9,539.7c0-25.7,16.3-43.7,41.1-43.7c21.2,0,36.1,13.1,37.6,33.2h-15.2c-1.7-11.4-7.9-21.6-22.2-21.6
		c-16.1,0-26,12.9-26,32.1c0,19.2,10,32.1,25.7,32.1c12.6,0,21.5-8.4,22.8-22.5h15.2c-1.5,21-17,34.1-38.2,34.1
		C772.5,583.3,755.9,565.4,755.9,539.7z"/>
	<path class="st0" d="M843.7,539.4c0-25.6,16-43.4,40.8-43.4c24.8,0,40.8,17.8,40.8,43.4c0,26-16,44-40.8,44
		C859.7,583.3,843.7,565.4,843.7,539.4z M910,539.4c0-19-10-31.8-25.6-31.8c-15.5,0-25.6,12.8-25.6,31.8c0,19.2,10,32.4,25.6,32.4
		C900,571.8,910,558.5,910,539.4z"/>
	<path class="st0" d="M1056.6,524.2v57.4H1042v-55.8c0-10.3-6.7-17.8-17-17.8c-12.8,0-21.5,11.3-21.5,30.9v42.8h-14.6v-55.8
		c0-10.3-6.8-17.8-16.9-17.8c-13.1,0-21.6,12.6-21.6,30.9v42.8h-14.6v-83.7h14.2V517h0.5c2.4-13.8,14.2-21,26-21
		c12.5,0,23.4,7.8,26.3,20.8h0.3c3.7-14.9,14.9-20.8,26.3-20.8C1044.5,496,1056.6,506.8,1056.6,524.2z"/>
	<path class="st0" d="M1149.4,539.2c0,25.7-15.8,44-36.1,44c-12.3,0-24.2-6.8-28.2-20.5h-0.5v10.5v36.2h-14.6V497.8h14.6V517h0.2
		c3.8-13.4,15.5-21,28.9-21C1134.5,496,1149.4,513.5,1149.4,539.2z M1134.2,539.2c0-19-10.2-31.8-24.3-31.8
		c-15.2,0-25.3,14.6-25.3,32.1c0,17.7,10.2,32.1,25.1,32.1C1124,571.6,1134.2,558.4,1134.2,539.2z"/>
	<path class="st0" d="M1239.3,570v11c-3.2,1.1-6.4,1.7-9.9,1.7c-11.9,0-17-6.8-17-17v-2.9h-0.6c-3.5,12.8-14.5,20.7-29.1,20.7
		c-14.2,0-25.9-6.8-25.9-22.5c0-19.3,18-21.9,34.2-24.8c12.9-2.3,20.8-5,20.8-14.9c0-7.8-4.9-13.8-18.4-13.8
		c-12.8,0-20.1,5.6-20.1,18.3h-14.6c0.3-18.7,12.8-29.5,34.7-29.5c21.2,0,32.7,10.2,32.7,28.5v38c0,7.6,3.8,9,7,9
		C1235.4,571.5,1237.5,570.9,1239.3,570z M1211.9,543.6v-4c-5.2,3.8-11.9,5.6-17.7,6.8c-11.6,2.4-22.5,3.7-22.5,13.8
		c0,8.1,6.8,11.4,15.4,11.4C1203.1,571.8,1211.9,560.4,1211.9,543.6z"/>
	<path class="st0" d="M1316.6,524.9v56.6H1302v-53.9c0-12.9-7.2-19.8-17.8-19.8c-13.4,0-23,10.8-23,30.3v43.4h-14.6v-83.7h14.2V517
		h0.5c2.4-13.5,14-21,26.9-21C1304.8,496,1316.6,507.6,1316.6,524.9z"/>
	<path class="st0" d="M1386.9,497.8h15.1l-30.1,80.7c-4.4,11.7-14.9,30.9-34.7,30.9c-5.3,0-8.7-1.4-10.2-2.1v-12
		c2,1.1,5.5,2.4,9.9,2.4c9.6,0,15.8-6.7,19-14.8l-33.8-85.1h16.1l20.1,55.4c1.5,4,3.2,8.5,4.3,14.3h0.5c1.2-5.6,2.9-10.2,4.4-14.3
		L1386.9,497.8z"/>
</g>
</svg>
