<?xml version="1.0" encoding="utf-8"?>
<!-- Generator: Adobe Illustrator 26.0.3, SVG Export Plug-In . SVG Version: 6.00 Build 0)  -->
<svg version="1.1" id="Layer_1" xmlns="http://www.w3.org/2000/svg" xmlns:xlink="http://www.w3.org/1999/xlink" x="0px" y="0px"
	 viewBox="515 470 890 145" style="enable-background:new 0 0 1920 1080;" xml:space="preserve">
<style type="text/css">
	.st0{fill:#FFFFFF;}
</style>
<g>
	<path class="st0" d="M520,581.5200195V475h19.0217896l46.7158813,72.8902588
		c3.8043823,5.9346313,6.8478394,11.8692017,9.1304932,16.7382202h0.6084595
		c-0.4561157-5.3261108-0.7608643-11.7168579-0.7608643-19.3255615V475h14.7612915v106.5200195h-19.0217285l-46.8683472-72.281311
		c-3.8043213-5.9346008-6.8478394-11.8692017-8.9780273-16.8910522h-0.6085205
		c0.4561157,5.1737366,0.7598877,11.5649414,0.7598877,19.0213013v70.151062H520z"/>
	<path class="st0" d="M700.1721191,543.477417h-63.7598267c1.21698,17.6514282,11.2606812,28.3036499,25.5648804,28.3036499
		c11.4130859,0,20.5425415-6.3917236,21.9129028-15.673584h14.7603149
		c-1.6741333,17.1953125-17.9561768,27.2380371-36.6732178,27.2380371c-24.1954956,0-40.6299438-16.890564-40.6299438-43.6724243
		c0-24.8040161,15.2174683-43.6734314,40.3251953-43.6734314c25.5648804,0,38.4996948,18.8694153,38.4996948,44.7380066V543.477417z
		 M636.717041,532.2167358h47.9338989c-1.0656128-16.130188-10.3484497-24.6521301-22.9785156-24.6521301
		C648.5862427,507.5646057,638.9996338,516.6950684,636.717041,532.2167358z"/>
	<path class="st0" d="M749.9354248,509.3910828H731.369812v48.8466492c0,9.5866089,3.9567261,12.9348145,10.3483887,12.9348145
		c2.7387695,0,5.6298828-0.6094971,8.2172241-1.8264771v11.8692017c-2.5873413,0.913208-5.9345703,1.6740723-10.3484497,1.6740723
		c-13.5422974,0-22.8251343-7.0001831-22.8251343-23.2822266v-50.2160339h-11.8692017v-11.5654297h11.8692017V475h14.6079712
		v22.8256531h18.5656128V509.3910828z"/>
	<path class="st0" d="M755.8720093,539.6730957c0-25.7172852,16.2820435-43.6734314,41.0860596-43.6734314
		c21.1519775,0,36.0646973,13.0866699,37.5864258,33.1735535h-15.2174072
		c-1.6741333-11.4130249-7.9134521-21.6086121-22.2166748-21.6086121c-16.1306763,0-26.0219727,12.9347839-26.0219727,32.10849
		c0,19.1731567,10.0437012,32.1079712,25.7172241,32.1079712c12.6300659,0,21.4558105-8.3696289,22.8261719-22.5214233h15.2164307
		c-1.5217285,20.9996338-17.0429077,34.0858765-38.1949463,34.0858765
		C772.4578247,583.34552,755.8720093,565.3893433,755.8720093,539.6730957z"/>
	<path class="st0" d="M843.6749268,539.3688354c0-25.5648804,15.9783325-43.3691711,40.7823486-43.3691711
		c24.8039551,0,40.781311,17.8042908,40.781311,43.3691711c0,26.0205078-15.977356,43.9766846-40.781311,43.9766846
		C859.6532593,583.34552,843.6749268,565.3893433,843.6749268,539.3688354z M910.0221558,539.3688354
		c0-19.0217896-10.0437012-31.8042297-25.5648804-31.8042297c-15.5222168,0-25.5648804,12.7824402-25.5648804,31.8042297
		c0,19.1726685,10.0426636,32.4122314,25.5648804,32.4122314
		C899.9784546,571.7810669,910.0221558,558.5415039,910.0221558,539.3688354z"/>
	<path class="st0" d="M1056.5626221,524.1513672v57.3686523h-14.6080322v-55.8468628
		c0-10.3474731-6.6954346-17.803833-17.0428467-17.803833c-12.7824707,0-21.4567871,11.2606812-21.4567871,30.8905029v42.7601929
		h-14.6079712v-55.8468628c0-10.3474731-6.8478394-17.803833-16.8915405-17.803833
		c-13.0861816,0-21.6081543,12.6300659-21.6081543,30.8905029v42.7601929h-14.6079102v-83.6943665h14.1517944v19.1736755h0.4561157
		c2.4349976-13.8475952,14.1518555-20.9996643,26.0210571-20.9996643c12.4786377,0,23.4346313,7.7610779,26.3257446,20.8477478
		h0.3047485c3.6519775-14.913147,14.9126587-20.8477478,26.3257446-20.8477478
		C1044.5410156,495.9996643,1056.5626221,506.8037415,1056.5626221,524.1513672z"/>
	<path class="st0" d="M1149.3907471,539.2164307c0,25.7167969-15.8259277,43.9776611-36.0646973,43.9776611
		c-12.3262939,0-24.1954346-6.8478394-28.1522217-20.5435181h-0.4560547v10.4998169v36.2171021h-14.6080322V497.8256531h14.6080322
		v19.1736755h0.1523438c3.8043213-13.3909607,15.5211182-20.9996643,28.9121094-20.9996643
		C1134.4781494,495.9996643,1149.3907471,513.4996948,1149.3907471,539.2164307z M1134.1733398,539.2164307
		c0-19.0213013-10.1950684-31.8037109-24.3468018-31.8037109c-15.2175293,0-25.2612305,14.6084595-25.2612305,32.1079712
		c0,17.6514282,10.196167,32.1079712,25.1087646,32.1079712
		C1123.9782715,571.6286621,1134.1733398,558.3900757,1134.1733398,539.2164307z"/>
	<path class="st0" d="M1239.3259277,569.9545898v10.9569092c-3.1958008,1.0646362-6.3907471,1.6731567-9.8912354,1.6731567
		c-11.8692627,0-17.0429688-6.8478394-17.0429688-17.0429688v-2.8911133h-0.6085205
		c-3.5006104,12.7824707-14.456543,20.6949463-29.0644531,20.6949463c-14.152832,0-25.8696289-6.8478394-25.8696289-22.5214233
		c0-19.3255005,17.9561768-21.9119263,34.2381592-24.8035278c12.9348145-2.2821045,20.8482666-5.0213623,20.8482666-14.9126587
		c0-7.7606201-4.8699951-13.8475647-18.413208-13.8475647c-12.7824707,0-20.0864258,5.6303406-20.0864258,18.2608948h-14.6088867
		c0.3046875-18.7174988,12.7823486-29.5215759,34.6953125-29.5215759c21.1519775,0,32.7164307,10.1955566,32.7164307,28.4559631
		V562.49823c0,7.6087036,3.8043213,8.9780884,7.0002441,8.9780884
		C1235.3692627,571.4763184,1237.4995117,570.8677979,1239.3259277,569.9545898z M1211.9355469,543.6287842v-3.9556885
		c-5.1746826,3.8043213-11.8701172,5.6298218-17.6523438,6.8468628
		c-11.5644531,2.4349365-22.5214844,3.6529541-22.5214844,13.8480225c0,8.0648193,6.8479004,11.4130859,15.369873,11.4130859
		C1203.1088867,571.7810669,1211.9355469,560.367981,1211.9355469,543.6287842z"/>
	<path class="st0" d="M1316.6291504,524.9122925v56.6077271h-14.6080322v-53.8685303
		c0-12.9348145-7.1525879-19.7821655-17.8046875-19.7821655c-13.3909912,0-22.9775391,10.8040771-22.9775391,30.2819824v43.3687134
		h-14.6080322v-83.6943665h14.1518555v19.1736755h0.4561768c2.4349365-13.543335,13.9993896-20.9996643,26.9342041-20.9996643
		C1304.7598877,495.9996643,1316.6291504,507.5646057,1316.6291504,524.9122925z"/>
	<path class="st0" d="M1386.9349365,497.8256531H1402l-30.130127,80.6508484
		c-4.4128418,11.7168579-14.9127197,30.8909912-34.6953125,30.8909912c-5.3250732,0-8.6733398-1.3703613-10.1950684-2.1312256
		v-12.0215454c1.9779053,1.0656128,5.4783936,2.4349365,9.8913574,2.4349365c9.5865479,0,15.8259277-6.6954346,19.020752-14.7603149
		l-33.7811279-85.0636902h16.1297607l20.0863037,55.3907166c1.5218506,3.9557495,3.1959229,8.5209961,4.2614746,14.3032227
		h0.4561768c1.217041-5.6298828,2.8911133-10.1951294,4.4128418-14.3032227L1386.9349365,497.8256531z"/>
</g>
</svg>
