<?xml version="1.0" encoding="UTF-8"?>
<svg width="16px" height="16px" viewBox="0 0 16 16" version="1.1" xmlns="http://www.w3.org/2000/svg" xmlns:xlink="http://www.w3.org/1999/xlink">
    <!-- Generator: Sketch 46.2 (44496) - http://www.bohemiancoding.com/sketch -->
    <title>Artboard</title>
    <desc>Created with Sketch.</desc>
    <defs></defs>
    <g id="Page-1" stroke="none" stroke-width="1" fill="none" fill-rule="evenodd">
        <g id="Artboard" fill="#342C3E">
            <path d="M11,11 L11,10 L5,10 L5,11 L8,11 L8,12 L10,12 L10,11 L11,11 Z M10,4 L10,3 L9,3 L9,4 L6,4 L6,3 L5,3 L5,5 L14,5 L14,4 L10,4 Z M1,3 L2,3 L2,13 L1,13 L1,3 Z M2,13 L14,13 L14,14 L2,14 L2,13 Z M14,5 L15,5 L15,13 L14,13 L14,5 Z M6,2 L9,2 L9,3 L6,3 L6,2 Z M2,2 L5,2 L5,3 L2,3 L2,2 Z M4,6 L5,6 L5,7 L4,7 L4,6 Z M9,6 L10,6 L10,7 L9,7 L9,6 Z M6,6 L7,6 L7,7 L6,7 L6,6 Z M11,6 L12,6 L12,7 L11,7 L11,6 Z M4,8 L5,8 L5,9 L4,9 L4,8 Z M9,8 L10,8 L10,9 L9,9 L9,8 Z M6,8 L7,8 L7,9 L6,9 L6,8 Z M11,8 L12,8 L12,9 L11,9 L11,8 Z M5,7 L6,7 L6,8 L5,8 L5,7 Z M10,7 L11,7 L11,8 L10,8 L10,7 Z" id="Combined-Shape"></path>
        </g>
    </g>
</svg>