<?xml version="1.0" encoding="utf-8"?>
<!-- Generator: Adobe Illustrator 25.4.1, SVG Export Plug-In . SVG Version: 6.00 Build 0)  -->
<svg version="1.1" id="Layer_1" xmlns="http://www.w3.org/2000/svg" xmlns:xlink="http://www.w3.org/1999/xlink" x="0px" y="0px"
	 viewBox="0 0 1100 400" style="enable-background:new 0 0 1100 400;" xml:space="preserve">
<style type="text/css">
	.st0{fill:#E21617;}
	.st1{fill:#B21C17;}
</style>
<rect x="-0.45" y="-4.7" class="st0" width="1100.91" height="409.4"/>
<polygon class="st1" points="156.65,326.41 191.07,347.92 191.07,400 82.86,400 82.86,354.46 123.71,326.41 "/>
<polygon class="st1" points="213.21,383.93 219.64,388.83 213.06,394.07 213.06,400 201.47,400 201.47,394.18 "/>
<path class="st1" d="M595.51,206.1c0,0-5.82,30.31-13.74,36.63c-2.92,2.33-15,2.24-15,2.24s-5.34,93.53,0.88,123.74
	c1.01,4.93,4.05,13.43,6.09,17.62c1.63,3.36,7.24,12.56,7.93,13.67h-60.85c0.69-1.11,6.34-10.32,8.02-13.67
	c2.09-4.17,5.4-12.84,6.1-17.62c4.23-29.77,0.8-123.74,0.8-123.74s-11.97,0.04-14.98-2.26c-8.14-6.26-13.7-36.61-13.7-36.61
	s11.93-5.38,15.34-8.73c1.43-1.4,3.34-8.22,3.34-8.22h13.5l0.08-10.98h6.69l5.27-114.81l5.29,114.81l6.69-0.08l0.08,11.06h13.5
	c0,0,2.16,6.77,3.35,8.22C582.77,200.57,595.51,206.1,595.51,206.1z"/>
<polygon class="st1" points="837.87,347.66 930.98,347.05 930.98,400 654.98,400 654.98,347.05 749.94,347.66 750.01,316.8 
	758.4,292.6 768.25,316.8 768.25,347.66 793.67,316.8 819.63,347.66 819.63,316.8 828.02,292.6 837.87,316.8 "/>
<rect x="550.48" y="398.38" class="st1" width="1.62" height="1.62"/>
<path class="st1" d="M1085.68,333.92c0,1.31-1.06,2.56-3,3.71V400h-85.24v-62.37c-1.94-1.15-3-2.4-3-3.71
	c0-5.75,20.43-10.4,45.62-10.4C1065.25,323.52,1085.68,328.17,1085.68,333.92z"/>
<polyline class="st1" points="421.14,400 421.14,277.55 415.02,264.14 409.02,277.55 408.73,291.55 393.84,291.55 389.76,280.56 
	382.75,299.64 383.47,339.69 375.32,339.69 372.17,318.66 366.67,339.69 351.62,309.19 336.47,339.69 330.2,318.66 327.82,339.69 
	319.67,339.69 318.94,299.64 312.61,280.56 308.34,292.05 293.83,292.05 294.12,277.55 287.6,264.14 281.23,277.55 281.23,400 "/>
<circle class="st1" cx="202.85" cy="397.04" r="5.08"/>
</svg>
