<svg width="293" height="45" viewBox="0 0 293 45" fill="none" xmlns="http://www.w3.org/2000/svg">
<path d="M40.4382 18.0237H31.4679L29.5018 26.4323H37.5505V32.57H28.0272L25.201 44.0474H18.5654L21.4531 32.57H14.0803L11.3154 44.0474H4.67988L7.50614 32.57H0.624817V26.4323H8.98071L11.0082 18.0237H3.51251V12.2543H12.4214L15.3091 0.470001H21.9446L18.9955 12.2543H26.3683L29.1946 0.470001H35.8301L32.9425 12.2543H40.4382V18.0237ZM22.9277 26.4323L24.8938 18.0237H17.5824L15.5548 26.4323H22.9277ZM62.1083 0.592755H69.9726L74.9493 15.0163L79.9874 0.592755H87.7904L80.2946 20.4174L85.8243 34.2885L98.1738 0.470001H107.39L89.9408 44.0474H82.6294L74.9493 25.7572L67.3307 44.0474H60.0193L42.6317 0.470001H51.7249L64.1358 34.2885L69.5426 20.4174L62.1083 0.592755ZM142.149 36.6209V44.0474H111.859V0.470001H141.596V7.89658H120.338V18.392H138.708V25.2662H120.338V36.6209H142.149ZM179.049 36.6209V44.0474H148.759V0.470001H178.496V7.89658H157.238V18.392H175.608V25.2662H157.238V36.6209H179.049ZM185.659 44.0474V0.531378H194.138V21.2153L212.447 0.470001H221.786L205.074 19.8037L222.831 44.0474H213.246L199.668 25.2662L194.138 31.0356V44.0474H185.659ZM226.76 44.0474V0.470001H235.238V36.6209H257.48V44.0474H226.76ZM261.255 0.470001L272.007 20.9698L282.943 0.470001H292.098L276.246 28.826V44.0474H267.829V28.7033L252.039 0.470001H261.255Z" fill="#666666"/>
</svg>
